<svg width="1147" height="803" viewBox="0 0 1147 803" fill="none" xmlns="http://www.w3.org/2000/svg">
<path d="M234.929 654.285L235.234 654.545L235.549 654.79C246.493 663.302 258.829 669.144 272.2 669.144C285.272 669.144 296.752 664.031 305.909 654.875C315.501 645.283 320.178 633.114 320.178 619.642C320.178 604.22 312.388 590.888 301.337 579.837L300.956 579.455L300.551 579.098C260.049 543.305 208.297 498.866 145.323 445.799L300.352 312.917L300.862 312.48L301.337 312.004C312.388 300.954 320.178 287.621 320.178 272.2C320.178 258.727 315.501 246.558 305.909 236.966C296.317 227.374 284.148 222.697 270.676 222.697C257.902 222.697 246.181 227.55 235.793 235.341L235.319 235.696L234.871 236.083L36.7677 406.756L36.7169 406.8L36.6663 406.844C23.9082 418.007 18.4988 433.462 18.4988 450.492V451.582L18.6339 452.663C20.2675 465.731 26.8924 476.621 36.8013 485.114L36.814 485.125L36.8266 485.136L234.929 654.285ZM369.483 770.689L369.959 771.164L370.469 771.602C380.24 779.977 391.783 784.958 404.717 784.958C425.017 784.958 440.446 772.688 451.439 755.587L451.923 754.834L452.328 754.036L787.579 92.6768L787.601 92.6337L787.622 92.5906C791.489 84.8569 794.042 76.5629 794.042 68.0012C794.042 53.6075 788.145 41.1825 777.263 31.8553C767.492 23.48 755.949 18.4988 743.015 18.4988C723.319 18.4988 709.292 30.7348 700.324 47.2402C692.82 60.148 675.339 93.6056 648.18 146.917L648.15 146.976L648.121 147.035C621.764 199.748 590.319 261.118 553.778 331.154L553.708 331.288L553.641 331.423C507.947 422.81 465.816 506.058 427.245 581.17C388.676 656.277 367.276 698.057 363.157 706.295C358.426 715.758 355.214 725.639 355.214 735.456C355.214 748.928 359.891 761.097 369.483 770.689ZM846.728 579.098L846.324 579.455L845.942 579.837C834.891 590.888 827.101 604.22 827.101 619.642C827.101 633.114 831.778 645.283 841.371 654.875C850.527 664.031 862.008 669.144 875.08 669.144C888.451 669.144 900.787 663.302 911.731 654.79L912.046 654.545L912.35 654.285L1110.45 485.136L1110.47 485.125L1110.48 485.114C1120.39 476.621 1127.01 465.731 1128.65 452.663L1128.78 451.582V450.492V441.349V440.259L1128.65 439.178C1127.01 426.11 1120.39 415.22 1110.48 406.727L1110.45 406.7L1110.42 406.674L1029.75 338.184C1005.43 316.909 982.623 297.138 961.317 278.875C940.559 260.098 924.448 246.497 913.361 238.626C902.756 229.397 890.396 222.697 876.604 222.697C863.132 222.697 850.963 227.374 841.371 236.966C831.779 246.558 827.101 258.727 827.101 272.2C827.101 287.621 834.891 300.954 845.942 312.004L846.417 312.48L846.928 312.917L1001.96 445.799C938.983 498.866 887.231 543.305 846.728 579.098Z" fill="white" stroke="white" stroke-width="35.0025"/>
</svg>
