<svg width="113" height="35" viewBox="0 0 113 35" fill="none" xmlns="http://www.w3.org/2000/svg">
<path d="M100.582 16.4462H106.794C107.087 14.502 108.165 13.1453 111.815 13.5746V6.95837C109.846 6.95837 107.843 8.11189 106.69 10.0801V7.36433H100.582V16.4462Z" fill="currentColor"/>
<path d="M80.2311 16.4462H98.1877C98.3509 10.2629 94.1048 6.95837 89.3163 6.95837C84.0564 6.95837 80.2212 10.9624 80.2212 16.0187C80.2212 16.1626 80.2254 16.3047 80.2311 16.4462V16.4462ZM89.3163 11.7089C91.1148 11.7089 92.1666 12.727 92.5059 14.3219L86.1929 14.3551C86.634 12.7601 87.7553 11.7089 89.3163 11.7089V11.7089Z" fill="currentColor"/>
<path d="M9.6867 16.4462L6.80192 7.36438H0.353027L3.86412 16.4462H9.6867Z" fill="currentColor"/>
<path d="M16.0991 16.4462L19.6284 7.36438H13.1812L10.2964 16.4462H16.0991Z" fill="currentColor"/>
<path d="M36.378 16.4462V13.8812C36.378 9.77508 34.1373 6.95837 28.6399 6.95837C25.3143 6.95837 22.6689 8.0771 20.8025 10.0453L24.7046 12.6931C25.3833 12.1502 26.6047 11.7089 27.7584 11.7089C29.3194 11.7089 30.2356 12.5911 30.2356 14.1861H28.234C27.3901 14.1861 23.3169 14.1895 21.1886 16.4462H36.378Z" fill="currentColor"/>
<path d="M56.8747 16.4462V13.8132C56.8747 11.3021 55.9572 6.95837 50.5616 6.95837C48.2201 6.95837 46.7614 7.97529 45.8791 9.19693V7.36433H39.7715V16.4462H45.8791V15.3062C45.8791 13.9488 46.83 12.9649 48.3231 12.9649C49.8162 12.9649 50.7654 13.9488 50.7654 15.3062V16.4462H56.8747Z" fill="currentColor"/>
<path d="M71.7989 0.815979V8.75615C70.8148 7.67024 69.3901 6.95834 67.3201 6.95834C61.9584 6.95834 59.3103 11.4705 59.3103 15.9838C59.3103 16.1381 59.3206 16.292 59.327 16.4461H65.4843C65.4653 16.2961 65.4528 16.1421 65.4528 15.9838C65.4528 14.1853 66.6411 12.8969 68.5414 12.8969C70.3399 12.8969 71.63 14.1514 71.63 15.9838C71.63 16.1432 71.6159 16.2965 71.5969 16.4461H77.9066V0.815979H71.7989Z" fill="currentColor"/>
<path d="M17.3428 34.749C16.499 33.1722 14.5722 32.343 11.4623 31.687C10.1049 31.4154 8.54435 31.2791 8.54435 30.2272C8.54435 29.4127 9.25625 28.9712 10.3422 28.9712C11.3602 28.9712 11.972 29.4798 12.2096 30.2603L17.096 29.0739C16.3494 26.1556 13.2613 24.7294 10.309 24.7294C5.99931 24.7294 2.63892 26.7991 2.63892 30.3962C2.63892 32.6526 3.57645 33.9277 5.19729 34.749H17.3428Z" fill="currentColor"/>
<path d="M26.1776 34.749C26.1654 34.6464 26.1562 34.5412 26.1562 34.4341V25.1369H20.0486V34.749L26.1776 34.749Z" fill="currentColor"/>
<path d="M37.1847 34.749V25.1369H31.0771V34.4341C31.0771 34.5412 31.0678 34.6464 31.0557 34.749L37.1847 34.749Z" fill="currentColor"/>
<path d="M56.8747 34.749V31.5842C56.8747 29.0731 55.9589 24.7294 50.5633 24.7294C48.2218 24.7294 46.7614 25.7479 45.8791 26.9696V25.137H39.7715V34.749H45.8791V33.0771C45.8791 31.7198 46.83 30.7359 48.3231 30.7359C49.8162 30.7359 50.7671 31.7198 50.7671 33.0771V34.749H56.8747Z" fill="currentColor"/>
<path d="M66.3657 34.749C66.2794 34.4463 66.2331 34.1148 66.2331 33.7565C66.2331 31.8562 67.5223 30.6679 69.2869 30.6679C70.4407 30.6679 71.3909 31.1766 71.8999 32.025L77.1592 28.8022C75.5982 26.291 72.7483 24.7294 69.2869 24.7294C63.9253 24.7294 60.0576 28.4966 60.0576 33.7565C60.0576 34.094 60.0743 34.4245 60.1057 34.749H66.3657Z" fill="currentColor"/>
<path d="M97.0185 34.749V31.6522C97.0185 27.5461 94.7796 24.7294 89.2822 24.7294C85.9566 24.7294 83.3095 25.8497 81.4431 27.8179L85.3452 30.4641C86.0239 29.9211 87.2452 29.4799 88.399 29.4799C89.96 29.4799 90.8762 30.3621 90.8762 31.957H88.8746C87.969 31.957 83.3436 31.9595 81.395 34.749H97.0185Z" fill="currentColor"/>
<path d="M102.517 21.5397V25.1369H100.378V30.2951H102.517V34.749H108.625V30.2951H112.018V25.1369H108.625V21.5397H102.517Z" fill="currentColor"/>
</svg>
